DBRep_DrawableShape

CASCADE Topology V1, (c) Matra-Datavision
Locations 0
Curve2ds 42
1 0 0 0 -1 
1 0 0 0 1 
1 0 0 0 1 
1 0 1.6000000000000001 1 0 
1 0 0 0 -1 
1 1.6000000000000001 0 0 1 
1 0 0 0 1 
1 0 0 1 0 
8 0 3.1415926535897931
7 0 0  10 56 7  3.1415926535897927 0.64350110879328426  3.2004975165758509 0.64350110873437938  3.2594017832983475 0.63836058625910019  3.3172370186426114 0.62808031057728653  3.3729202897466779 0.61280998793035157  3.4255383332868705 0.59285829410449276  3.4744626225553774 0.56864040611923572  3.5193594371074304 0.54061467741948066  3.5601092540527821 0.50923792333088302  3.5966999971132694 0.47494660597006089  3.6860994707439523 0.37375327269253672  3.7304879618810789 0.30168196225930144  3.7627644955893631 0.22412232122644973  3.7840435392368819 0.14299206268194667  3.7951894305515452 0.059800272160330792  3.7966126904939301 -0.024128518465886373  3.7883155345805788 -0.10752041412778297  3.7698751714405487 -0.18904633347478644  3.7404209497145744 -0.26711798025759498  3.6682601104290988 -0.39439245285949898  3.6307065968337682 -0.44593271295953646  3.586208656549752 -0.49367241139186718  3.5344446736125974 -0.53671085654350459  3.4753423252332141 -0.57406668844851083  3.4090382830705495 -0.60464273431862237  3.3365183540397991 -0.62734372399299898  3.2599584789198701 -0.64135301683880253  3.1819235660379781 -0.64638899151565887  3.0469721959280549 -0.63975476804012632  2.9896540432707992 -0.63194653986466931  2.9338619855568475 -0.61923687135907346  2.8805659820710083 -0.60182853857517471  2.8305303946579246 -0.58005838356277506  2.7842447096227869 -0.55434390542806489  2.7419440222942653 -0.52512704981377389  2.7036889030751339 -0.49283912741259817  2.6694524524702343 -0.45788927621463416  2.5936726744084422 -0.36480950137483037  2.557035800739599 -0.30382676273717324  2.528923746593656 -0.23899318874657741  2.5087347782489813 -0.17144042057572614  2.4959544471777106 -0.10212508702078242  2.4902633695007661 -0.031882503110777324  2.4915507812464983 0.038500998642733229  2.49992219331053 0.10822654803375957  2.5156969522931982 0.17643323420625481  2.5629010390465989 0.30783394322142998  2.5943300646467833 0.37102839154977119  2.6340120384120382 0.4307291910481581  2.6824584673158824 0.48583965934085427  2.7402389008784667 0.53505720206885599  2.80748581251828 0.57697451475542039  2.8841163401666563 0.60988076959256432  2.9676391207431152 0.6322935681173476  3.0546159421943626 0.6435011087063075  3.1415926535897931 0.64350110879328426 
 0 11 0.78539816339744217 9 2.1598449493429572 9 3.1906800388020895 9 3.9638063558964678 9 5.123495831538027 9 6.2831853071795862 11
8 0 3.1415926535897931
2 1.2 -0.80000000000000004 1 0 -0 1 0.59999999999999987
8 3.1415926535897931 6.2831853071795862
7 0 0  10 56 7  3.1415926535897927 0.64350110879328426  3.2004975165758509 0.64350110873437938  3.2594017832983475 0.63836058625910019  3.3172370186426114 0.62808031057728653  3.3729202897466779 0.61280998793035157  3.4255383332868705 0.59285829410449276  3.4744626225553774 0.56864040611923572  3.5193594371074304 0.54061467741948066  3.5601092540527821 0.50923792333088302  3.5966999971132694 0.47494660597006089  3.6860994707439523 0.37375327269253672  3.7304879618810789 0.30168196225930144  3.7627644955893631 0.22412232122644973  3.7840435392368819 0.14299206268194667  3.7951894305515452 0.059800272160330792  3.7966126904939301 -0.024128518465886373  3.7883155345805788 -0.10752041412778297  3.7698751714405487 -0.18904633347478644  3.7404209497145744 -0.26711798025759498  3.6682601104290988 -0.39439245285949898  3.6307065968337682 -0.44593271295953646  3.586208656549752 -0.49367241139186718  3.5344446736125974 -0.53671085654350459  3.4753423252332141 -0.57406668844851083  3.4090382830705495 -0.60464273431862237  3.3365183540397991 -0.62734372399299898  3.2599584789198701 -0.64135301683880253  3.1819235660379781 -0.64638899151565887  3.0469721959280549 -0.63975476804012632  2.9896540432707992 -0.63194653986466931  2.9338619855568475 -0.61923687135907346  2.8805659820710083 -0.60182853857517471  2.8305303946579246 -0.58005838356277506  2.7842447096227869 -0.55434390542806489  2.7419440222942653 -0.52512704981377389  2.7036889030751339 -0.49283912741259817  2.6694524524702343 -0.45788927621463416  2.5936726744084422 -0.36480950137483037  2.557035800739599 -0.30382676273717324  2.528923746593656 -0.23899318874657741  2.5087347782489813 -0.17144042057572614  2.4959544471777106 -0.10212508702078242  2.4902633695007661 -0.031882503110777324  2.4915507812464983 0.038500998642733229  2.49992219331053 0.10822654803375957  2.5156969522931982 0.17643323420625481  2.5629010390465989 0.30783394322142998  2.5943300646467833 0.37102839154977119  2.6340120384120382 0.4307291910481581  2.6824584673158824 0.48583965934085427  2.7402389008784667 0.53505720206885599  2.80748581251828 0.57697451475542039  2.8841163401666563 0.60988076959256432  2.9676391207431152 0.6322935681173476  3.0546159421943626 0.6435011087063075  3.1415926535897931 0.64350110879328426 
 0 11 0.78539816339744217 9 2.1598449493429572 9 3.1906800388020895 9 3.9638063558964678 9 5.123495831538027 9 6.2831853071795862 11
8 3.1415926535897931 6.2831853071795862
2 1.2 -0.80000000000000004 1 0 -0 1 0.59999999999999987
1 0 0 1 0 
1 0 0 1 0 
1 2.3999999999999999 0 0 -1 
1 0 0 0 1 
1 0 -1.6000000000000001 1 0 
1 0 0 1 0 
8 0 3.1415926535897931
7 0 0  10 56 7  1.5707963267948972 0.64350110879328426  1.5118914638088381 0.64350110873437938  1.4529871970831123 0.63836058625910019  1.3951519617424355 0.62808031057728653  1.3394686906364164 0.61280998793035157  1.2868506470920491 0.59285829410449276  1.2379263578238655 0.56864040611923572  1.1930295432743268 0.54061467741948066  1.1522797263288205 0.50923792333088302  1.1156889832714199 0.47494660597006089  1.026289509640737 0.37375327269253672  0.98190101851382994 0.30168196225930144  0.94962448475175731 0.22412232122644973  0.92834544124270901 0.14299206268194667  0.91719954982727359 0.059800272160330792  0.91577628979139258 -0.024128518465886373  0.92407344584771633 -0.10752041412778297  0.94251380892198111 -0.18904633347478644  0.97196803067011517 -0.26711798025759498  1.0441288699555897 -0.39439245285949898  1.0816823835585938 -0.44593271295953646  1.1261803238349786 -0.49367241139186718  1.177944306722202 -0.53671085654350459  1.2370466550710262 -0.57406668844851083  1.3033506972627946 -0.60464273431862237  1.3758706263385647 -0.62734372399299898  1.4524305014623053 -0.64135301683880253  1.5304654143467116 -0.64638899151565887  1.6654167844566348 -0.63975476804012632  1.7227349371130667 -0.63194653986466931  1.7785269948249094 -0.61923687135907346  1.8318229983076886 -0.60182853857517471  1.8818585857192776 -0.58005838356277506  1.9281442707558802 -0.55434390542806489  1.9704449580873855 -0.52512704981377389  2.0087000773085908 -0.49283912741259817  2.0429365279144553 -0.45788927621463416  2.1187163059762488 -0.36480950137483037  2.1553531796470971 -0.30382676273717324  2.1834652337813099 -0.23899318874657741  2.2036542021255929 -0.17144042057572614  2.2164345332015123 -0.10212508702078242  2.2221256108769012 -0.031882503110777324  2.2208381991303776 0.038500998642733229  2.2124667870747516 0.10822654803375957  2.1966920280914919 0.17643323420625481  2.1494879413380912 0.30783394322142998  2.1180589159102965 0.37102839154977119  2.0783769409172237 0.4307291910481581  2.0299305140215438 0.48583965934085427  1.9721500801388174 0.53505720206885599  1.9049031695176382 0.57697451475542039  1.8282726395555073 0.60988076959256432  1.7447498598339735 0.6322935681173476  1.6577730381903271 0.6435011087063075  1.5707963267948968 0.64350110879328426 
 0 11 0.78539816339745161 9 2.1598449493429834 9 3.1906800388021277 9 3.9638063558964847 9 5.1234958315380359 9 6.2831853071795871 11
8 0 3.1415926535897931
2 1.2 0.80000000000000004 1 0 -0 1 0.59999999999999987
8 3.1415926535897931 6.2831853071795862
7 0 0  10 56 7  1.5707963267948972 0.64350110879328426  1.5118914638088381 0.64350110873437938  1.4529871970831123 0.63836058625910019  1.3951519617424355 0.62808031057728653  1.3394686906364164 0.61280998793035157  1.2868506470920491 0.59285829410449276  1.2379263578238655 0.56864040611923572  1.1930295432743268 0.54061467741948066  1.1522797263288205 0.50923792333088302  1.1156889832714199 0.47494660597006089  1.026289509640737 0.37375327269253672  0.98190101851382994 0.30168196225930144  0.94962448475175731 0.22412232122644973  0.92834544124270901 0.14299206268194667  0.91719954982727359 0.059800272160330792  0.91577628979139258 -0.024128518465886373  0.92407344584771633 -0.10752041412778297  0.94251380892198111 -0.18904633347478644  0.97196803067011517 -0.26711798025759498  1.0441288699555897 -0.39439245285949898  1.0816823835585938 -0.44593271295953646  1.1261803238349786 -0.49367241139186718  1.177944306722202 -0.53671085654350459  1.2370466550710262 -0.57406668844851083  1.3033506972627946 -0.60464273431862237  1.3758706263385647 -0.62734372399299898  1.4524305014623053 -0.64135301683880253  1.5304654143467116 -0.64638899151565887  1.6654167844566348 -0.63975476804012632  1.7227349371130667 -0.63194653986466931  1.7785269948249094 -0.61923687135907346  1.8318229983076886 -0.60182853857517471  1.8818585857192776 -0.58005838356277506  1.9281442707558802 -0.55434390542806489  1.9704449580873855 -0.52512704981377389  2.0087000773085908 -0.49283912741259817  2.0429365279144553 -0.45788927621463416  2.1187163059762488 -0.36480950137483037  2.1553531796470971 -0.30382676273717324  2.1834652337813099 -0.23899318874657741  2.2036542021255929 -0.17144042057572614  2.2164345332015123 -0.10212508702078242  2.2221256108769012 -0.031882503110777324  2.2208381991303776 0.038500998642733229  2.2124667870747516 0.10822654803375957  2.1966920280914919 0.17643323420625481  2.1494879413380912 0.30783394322142998  2.1180589159102965 0.37102839154977119  2.0783769409172237 0.4307291910481581  2.0299305140215438 0.48583965934085427  1.9721500801388174 0.53505720206885599  1.9049031695176382 0.57697451475542039  1.8282726395555073 0.60988076959256432  1.7447498598339735 0.6322935681173476  1.6577730381903271 0.6435011087063075  1.5707963267948968 0.64350110879328426 
 0 11 0.78539816339745161 9 2.1598449493429834 9 3.1906800388021277 9 3.9638063558964847 9 5.1234958315380359 9 6.2831853071795871 11
8 3.1415926535897931 6.2831853071795862
2 1.2 0.80000000000000004 1 0 -0 1 0.59999999999999987
1 0 -1.6000000000000001 1 0 
1 0 1.6000000000000001 1 0 
1 2.3999999999999999 0 0 1 
1 0 1.6000000000000001 1 0 
7 0 0  10 29 4  6.2831853071795862 0.64350110879328426  6.2242804442122779 0.64350110873437938  6.1653761775062916 0.63836058626277858  6.1075409421823164 0.62808031058545688  6.0518576710939538 0.61280998794823804  5.9992396275643145 0.59285829413571878  5.950315338304395 0.56864040616477118  5.9054185237593808 0.54061467748099701  5.8646687068182128 0.50923792341115892  5.8280779637609363 0.47494660606829797  5.7468057150024014 0.38295266677232698  5.7072274618890999 0.32211684068850949  5.6765893315770404 0.25702083376968543  5.6542527730897802 0.18889122795007346  5.6396435249999799 0.11875741821430415  5.6323886284738425 0.047507657504712586  5.6323370093073422 -0.024030380865098476  5.6395676766310698 -0.095023041694891008  5.6543892105050944 -0.16457914947595048  5.7000784598344065 -0.2987748886219852  5.7309457400131336 -0.36341501010883803  5.770270314981893 -0.42457545054276125  5.818585278134627 -0.48112383718398632  5.8765169973151146 -0.5317087412258843  5.944224248715976 -0.57486881126533262  6.0217340941192319 -0.60880521338549443  6.1064706419372428 -0.63193492179652822  6.1948280131036233 -0.64350110870492694  6.2831853071795862 -0.64350110879328426 
 3.2657247977262755e-16 11 0.7853981633974505 9 1.9634954084936218 9 3.1415926535897922 11
2 1.2 -0.80000000000000004 1 0 -0 1 0.59999999999999987
7 0 0  10 29 4  0 -0.64350110879328426  0.058904862967308347 -0.64350110873437938  0.11780973681812057 -0.6383606557676107  0.17564205971590319 -0.62808004558639818  0.23133043720681634 -0.61281031147118481  0.28394567910618207 -0.59285829273721902  0.33286716777129222 -0.56864008270276822  0.37776908962873712 -0.54061494504571783  0.41851599275742579 -0.50923785263209032  0.45510734341864989 -0.47494660606829797  0.53637959217718478 -0.38295266677232703  0.57595784529076877 -0.32211684068839908  0.60659597560105993 -0.25702083376992091  0.62893253408731908 -0.18889122795003463  0.64354178217738323 -0.1187574182139757  0.65079667870425872 -0.047507657504670925  0.65084829787171383 0.024030380864872983  0.64361763054894094 0.095023041695014715  0.62879609667449188 0.16457914947595031  0.5831068473451797 0.29877488862198509  0.55223956715508393 0.36341501012338995  0.51291499218314129 0.42457545042634592  0.46460002898675157 0.48112383718398632  0.40666830985719571 0.53170874134229962  0.33896105827443535 0.57486881126533262  0.26145121304944041 0.60880521332728676  0.17671466522460832 0.63193492180380417  0.088357294075962933 0.64350110870492694  0 0.64350110879328426 
 3.1415926535897931 11 3.9269908169872427 9 5.1050880620834143 9 6.2831853071795862 11
2 1.2 -0.80000000000000004 1 0 -0 1 0.59999999999999987
1 0 0 1 0 
1 0 1.6000000000000001 1 0 
1 2.3999999999999999 0 0 -1 
1 1.6000000000000001 0 0 1 
8 0 3.1415926535897931
7 0 0  10 56 7  4.7123889803846843 0.64350110879328426  4.7712938433707484 0.64350110873437938  4.8301981100947629 0.63836058625910019  4.8880333454399958 0.62808031057728653  4.9437166165450135 0.61280998793035157  4.9963346600885021 0.59285829410449276  5.0452589493606261 0.56864040611923572  5.0901557639111825 0.54061467741948066  5.1309055808497623 0.50923792333088302  5.1674963239081659 0.47494660597006089  5.2568957975388493 0.37375327269253672  5.3012842886113507 0.30168196225930144  5.333560822526306 0.22412232122644973  5.3548398657934744 0.14299206268194667  5.3659857572056353 0.059800272160330792  5.3674090173211884 -0.024128518465886373  5.3591118611606365 -0.10752041412778297  5.340671498278506 -0.18904633347478644  5.3112172765094705 -0.26711798025759498  5.2390564372239963 -0.39439245285949898  5.2015029236062418 -0.44593271295953646  5.1570049832937004 -0.49367241139186718  5.1052410003991096 -0.53671085654350459  5.046138652076479 -0.57406668844851083  4.9798346099036284 -0.60464273431862237  4.9073146808308596 -0.62734372399299898  4.8307548057229024 -0.64135301683880253  4.7527198928328742 -0.64638899151565887  4.6177685227229492 -0.63975476804012632  4.560450370065233 -0.63194653986466931  4.5046583123493509 -0.61923687135907346  4.4513623088668579 -0.60182853857517471  4.4013267214561189 -0.58005838356277506  4.3550410364180907 -0.55434390542806489  4.3127403490874059 -0.52512704981377389  4.274485229871547 -0.49283912741259817  4.2402487792651318 -0.45788927621463416  4.1644690012033374 -0.36480950137483037  4.1278321275354468 -0.30382676273724396  4.0997200733880703 -0.23899318874652434  4.0795311050491367 -0.17144042057577166  4.0667507739805542 -0.10212508702103507  4.061059696296919 -0.031882503111065344  4.062347108037093 0.038500998642574072  4.070718520105812 0.10822654803368881  4.0864932790880939 0.17643323420625481  4.1336973658414955 0.30783394322143004  4.1651263916246535 0.37102839155704714  4.2048083653789945 0.43072919098995044  4.2532547952141613 0.48583965945726959  4.3110352251678705 0.53505720195244066  4.378282138321083 0.57697451475542039  4.4549126659694593 0.60988076959256432  4.5384354475463624 0.63229356812462356  4.6254122689892592 0.6435011087063075  4.7123889803846852 0.64350110879328426 
 0 11 0.78539816339741964 9 2.1598449493429261 9 3.1906800388020722 9 3.9638063558964438 9 5.1234958315380155 9 6.2831853071795862 11
8 0 3.1415926535897931
2 1.2 0.80000000000000004 1 0 -0 1 0.59999999999999987
8 3.1415926535897931 6.2831853071795862
7 0 0  10 56 7  4.7123889803846843 0.64350110879328426  4.7712938433707484 0.64350110873437938  4.8301981100947629 0.63836058625910019  4.8880333454399958 0.62808031057728653  4.9437166165450135 0.61280998793035157  4.9963346600885021 0.59285829410449276  5.0452589493606261 0.56864040611923572  5.0901557639111825 0.54061467741948066  5.1309055808497623 0.50923792333088302  5.1674963239081659 0.47494660597006089  5.2568957975388493 0.37375327269253672  5.3012842886113507 0.30168196225930144  5.333560822526306 0.22412232122644973  5.3548398657934744 0.14299206268194667  5.3659857572056353 0.059800272160330792  5.3674090173211884 -0.024128518465886373  5.3591118611606365 -0.10752041412778297  5.340671498278506 -0.18904633347478644  5.3112172765094705 -0.26711798025759498  5.2390564372239963 -0.39439245285949898  5.2015029236062418 -0.44593271295953646  5.1570049832937004 -0.49367241139186718  5.1052410003991096 -0.53671085654350459  5.046138652076479 -0.57406668844851083  4.9798346099036284 -0.60464273431862237  4.9073146808308596 -0.62734372399299898  4.8307548057229024 -0.64135301683880253  4.7527198928328742 -0.64638899151565887  4.6177685227229492 -0.63975476804012632  4.560450370065233 -0.63194653986466931  4.5046583123493509 -0.61923687135907346  4.4513623088668579 -0.60182853857517471  4.4013267214561189 -0.58005838356277506  4.3550410364180907 -0.55434390542806489  4.3127403490874059 -0.52512704981377389  4.274485229871547 -0.49283912741259817  4.2402487792651318 -0.45788927621463416  4.1644690012033374 -0.36480950137483037  4.1278321275354468 -0.30382676273724396  4.0997200733880703 -0.23899318874652434  4.0795311050491367 -0.17144042057577166  4.0667507739805542 -0.10212508702103507  4.061059696296919 -0.031882503111065344  4.062347108037093 0.038500998642574072  4.070718520105812 0.10822654803368881  4.0864932790880939 0.17643323420625481  4.1336973658414955 0.30783394322143004  4.1651263916246535 0.37102839155704714  4.2048083653789945 0.43072919098995044  4.2532547952141613 0.48583965945726959  4.3110352251678705 0.53505720195244066  4.378282138321083 0.57697451475542039  4.4549126659694593 0.60988076959256432  4.5384354475463624 0.63229356812462356  4.6254122689892592 0.6435011087063075  4.7123889803846852 0.64350110879328426 
 0 11 0.78539816339741964 9 2.1598449493429261 9 3.1906800388020722 9 3.9638063558964438 9 5.1234958315380155 9 6.2831853071795862 11
8 3.1415926535897931 6.2831853071795862
2 1.2 0.80000000000000004 1 0 -0 1 0.59999999999999987
1 2.3999999999999999 0 0 1 
1 0 0 1 0 
1 6.2831853071795862 -6.2831853071795862 0 1 
1 0 -6.2831853071795862 0 1 
Curves 21
1 -0.80000000000000004 -0.80000000000000004 -1.2 -0 1 0 
1 -0.80000000000000004 0.80000000000000004 -1.2 1 0 -0 
1 0.80000000000000004 -0.80000000000000004 -1.2 -0 1 0 
1 -0.80000000000000004 -0.80000000000000004 -1.2 1 0 -0 
2 -0.80000000000000004 0 0 1 0 -0 0 0 1 0 -1 0 0.59999999999999987
2 -0.80000000000000004 0 0 1 0 -0 0 0 1 0 -1 0 0.59999999999999987
1 -0.80000000000000004 -0.80000000000000004 -1.2 0 0 1 
1 -0.80000000000000004 -0.80000000000000004 1.2 -0 1 0 
1 -0.80000000000000004 0.80000000000000004 -1.2 0 0 1 
2 0 0.80000000000000004 0 -0 1 0 0 0 1 1 0 -0 0.59999999999999987
2 0 0.80000000000000004 0 -0 1 0 0 0 1 1 0 -0 0.59999999999999987
1 0.80000000000000004 0.80000000000000004 -1.2 0 0 1 
1 -0.80000000000000004 0.80000000000000004 1.2 1 0 -0 
2 0.80000000000000004 0 0 1 0 -0 0 0 1 0 -1 0 0.59999999999999987
2 0.80000000000000004 0 0 1 0 -0 0 0 1 0 -1 0 0.59999999999999987
1 0.80000000000000004 -0.80000000000000004 -1.2 0 0 1 
1 0.80000000000000004 -0.80000000000000004 1.2 0 1 0 
2 0 -0.80000000000000004 0 -0 1 0 0 0 1 1 0 -0 0.59999999999999987
2 0 -0.80000000000000004 0 -0 1 0 0 0 1 1 0 -0 0.59999999999999987
1 -0.80000000000000004 -0.80000000000000004 1.2 1 0 -0 
2 0 0 0 -2.4492935982947064e-16 -1 0 1 -2.4492935982947064e-16 0 0 0 1 1
Polygon3D 0
PolygonOnTriangulations 0
Surfaces 7
1 -0.80000000000000004 -0.80000000000000004 -1.2 0 0 1 1 0 -0 -0 1 0 
1 -0.80000000000000004 -0.80000000000000004 -1.2 1 0 -0 0 0 1 0 -1 0 
1 -0.80000000000000004 0.80000000000000004 -1.2 -0 1 0 0 0 1 1 0 -0 
1 0.80000000000000004 -0.80000000000000004 -1.2 1 0 -0 0 0 1 0 -1 0 
1 -0.80000000000000004 -0.80000000000000004 -1.2 -0 1 0 0 0 1 1 0 -0 
4 0 0 0 0 0 1 1 0 -0 -0 1 0 1
1 -0.80000000000000004 -0.80000000000000004 1.2 0 0 1 1 0 -0 -0 1 0 
Triangulations 0

TShapes 66
Ve
1e-07
-0.8 0.8 -1.2
0 0

0101101
*
Ve
1e-07
-0.8 -0.8 -1.2
0 0

0101101
*
Ed
 1e-07 1 1 0
1  1 0 0 1.6
2  1 2 0 0 1.6
2  2 1 0 0 1.6
0

0101000
-66 0 +65 0 *
Ve
1e-07
0.8 0.8 -1.2
0 0

0101101
*
Ed
 1e-07 1 1 0
1  2 0 0 1.6
2  3 3 0 0 1.6
2  4 1 0 0 1.6
0

0101000
-63 0 +66 0 *
Ve
1e-07
0.8 -0.8 -1.2
0 0

0101101
*
Ed
 1e-07 1 1 0
1  3 0 0 1.6
2  5 4 0 0 1.6
2  6 1 0 0 1.6
0

0101000
-63 0 +61 0 *
Ed
 1e-07 1 1 0
1  4 0 0 1.6
2  7 5 0 0 1.6
2  8 1 0 0 1.6
0

0101000
-61 0 +65 0 *
Wi

0101000
-64 0 -62 0 +60 0 +59 0 *
Fa
0  1e-07 1 0

0111000
+58 0 *
Ve
1e-07
-0.8 0 0.6
0 0

0101101
*
Ve
1e-07
-0.8 -7.34788079488412e-17 -0.6
0 0

0101101
*
Ed
 1e-07 1 1 0
1  5 0 0 3.14159265358979
2  9 6 0 0 3.14159265358979
2  10 2 0 0 3.14159265358979
0

0101000
+56 0 -55 0 *
Ed
 1e-07 1 1 0
1  6 0 3.14159265358979 6.28318530717959
2  11 6 0 3.14159265358979 6.28318530717959
2  12 2 0 3.14159265358979 6.28318530717959
0

0101000
+55 0 -56 0 *
Wi

0101000
-54 0 -53 0 *
Ve
1e-07
-0.8 -0.8 1.2
0 0

0101101
*
Ed
 1e-07 1 1 0
1  7 0 0 2.4
2  13 2 0 0 2.4
2  14 5 0 0 2.4
0

0101000
-51 0 +65 0 *
Ve
1e-07
-0.8 0.8 1.2
0 0

0101101
*
Ed
 1e-07 1 1 0
1  8 0 0 1.6
2  15 2 0 0 1.6
2  16 7 0 0 1.6
0

0101000
-49 0 +51 0 *
Ed
 1e-07 1 1 0
1  9 0 0 2.4
2  17 2 0 0 2.4
2  18 3 0 0 2.4
0

0101000
-49 0 +66 0 *
Wi

0101000
-50 0 -48 0 +64 0 +47 0 *
Fa
0  1e-07 2 0

0101000
+52 0 +46 0 *
Ve
1e-07
0 0.8 0.6
0 0

0101101
*
Ve
1e-07
7.34788079488412e-17 0.8 -0.6
0 0

0101101
*
Ed
 1e-07 1 1 0
1  10 0 0 3.14159265358979
2  19 6 0 0 3.14159265358979
2  20 3 0 0 3.14159265358979
0

0101000
+44 0 -43 0 *
Ed
 1e-07 1 1 0
1  11 0 3.14159265358979 6.28318530717959
2  21 6 0 3.14159265358979 6.28318530717959
2  22 3 0 3.14159265358979 6.28318530717959
0

0101000
+43 0 -44 0 *
Wi

0101000
-42 0 -41 0 *
Ve
1e-07
0.8 0.8 1.2
0 0

0101101
*
Ed
 1e-07 1 1 0
1  12 0 0 2.4
2  23 4 0 0 2.4
2  24 3 0 0 2.4
0

0101000
-39 0 +63 0 *
Ed
 1e-07 1 1 0
1  13 0 0 1.6
2  25 3 0 0 1.6
2  26 7 0 0 1.6
0

0101000
-39 0 +49 0 *
Wi

0101000
-62 0 -38 0 +47 0 +37 0 *
Fa
0  1e-07 3 0

0101000
+40 0 +36 0 *
Ve
2.00001e-07
0.8 -1.95943487863577e-16 0.6
0 0

0101101
*
Ve
2.00001e-07
0.8 -1.95943487863576e-16 -0.6
0 0

0101101
*
Ed
 1e-07 1 1 0
1  14 0 3.26572479772628e-16 3.14159265358979
2  27 6 0 3.26572479772628e-16 3.14159265358979
2  28 4 0 3.26572479772628e-16 3.14159265358979
0

0101000
+34 0 -33 0 *
Ed
 1e-07 1 1 0
1  15 0 3.14159265358979 6.28318530717959
2  29 6 0 3.14159265358979 6.28318530717959
2  30 4 0 3.14159265358979 6.28318530717959
0

0101000
+33 0 -34 0 *
Wi

0101000
-32 0 -31 0 *
Ve
1e-07
0.8 -0.8 1.2
0 0

0101101
*
Ed
 1e-07 1 1 0
1  16 0 0 2.4
2  31 4 0 0 2.4
2  32 5 0 0 2.4
0

0101000
-29 0 +61 0 *
Ed
 1e-07 1 1 0
1  17 0 0 1.6
2  33 4 0 0 1.6
2  34 7 0 0 1.6
0

0101000
-39 0 +29 0 *
Wi

0101000
-28 0 -27 0 +60 0 +38 0 *
Fa
0  1e-07 4 0

0101000
+30 0 +26 0 *
Ve
1e-07
0 -0.8 0.6
0 0

0101101
*
Ve
1e-07
7.34788079488412e-17 -0.8 -0.6
0 0

0101101
*
Ed
 1e-07 1 1 0
1  18 0 0 3.14159265358979
2  35 6 0 0 3.14159265358979
2  36 5 0 0 3.14159265358979
0

0101000
+24 0 -23 0 *
Ed
 1e-07 1 1 0
1  19 0 3.14159265358979 6.28318530717959
2  37 6 0 3.14159265358979 6.28318530717959
2  38 5 0 3.14159265358979 6.28318530717959
0

0101000
+23 0 -24 0 *
Wi

0101000
-22 0 -21 0 *
Ed
 1e-07 1 1 0
1  20 0 0 1.6
2  39 5 0 0 1.6
2  40 7 0 0 1.6
0

0101000
-29 0 +51 0 *
Wi

0101000
-59 0 -28 0 +50 0 +19 0 *
Fa
0  1e-07 5 0

0101000
+20 0 +18 0 *
Wi

0101000
-54 0 -53 0 *
Fa
0  1e-07 6 0

0111000
+16 0 *
Wi

0101000
-48 0 -37 0 +27 0 +19 0 *
Fa
0  1e-07 7 0

0111000
+14 0 *
Wi

0101000
+41 0 +42 0 *
Fa
0  1e-07 6 0

0111000
+12 0 *
Ed
 1e-07 1 1 0
1  21 0 5.6396841983863 6.92668641597287
3  41 42CN 6 0 5.6396841983863 6.92668641597287
0

0101000
+33 0 -34 0 *
Wi

0101000
+10 0 +32 0 *
Fa
0  1e-07 6 0

0101000
+9 0 *
Wi

0101000
+31 0 -10 0 *
Fa
0  1e-07 6 0

0101000
+7 0 *
Wi

0101000
-22 0 -21 0 *
Fa
0  1e-07 6 0

0111000
+5 0 *
Sh

0101000
-57 0 -45 0 +35 0 +25 0 -17 0 +15 0 +13 0 +11 0 +8 0 +6 0 
+4 0 *
So

0100000
+3 0 *
Co

1100000
+2 0 *

+1 0 
0

