DBRep_DrawableShape

CASCADE Topology V1, (c) Matra-Datavision
Locations 2
1
0.866025403784439            -0.5               0               0 
            0.5 0.866025403784439               0               0 
              0               0               1               0 
2  1 -1 0
Curve2ds 80
1 0 0 0 -1 
1 0 0 0 1 
1 0 0 0 1 
1 0 20 1 0 
1 0 0 0 -1 
1 20 0 0 1 
1 0 0 0 1 
1 0 0 1 0 
8 -17.603631010818454 -9.1506337946109664
1 5 1.8301270189221945 0 1 
8 -17.603631010818454 -9.1506337946109664
1 -4.5753175473054828 4.7548094716167091 -0.49999999999999994 -0.86602540378443871 
8 2.4999986999999999 12.500001299999999
1 2.5 -15.77350269189626 1 0 
8 2.4999986999999999 12.500001299999999
1 -2.5 4.2264973081037436 1 0 
1 15 0 0 -1 
1 0 0 0 1 
1 0 -20 1 0 
1 0 0 1 0 
1 0 0 1 0 
1 0 0 1 0 
8 2.4999986999999999 12.500001299999999
1 2.5 -7.3205080756887728 1 0 
8 2.4999986999999999 12.500001299999999
1 -2.5 -12.679491924311227 1 0 
8 -12.500001299999999 -2.4999986999999999
1 2.5 15.773502691896258 -1 0 
8 -12.500001299999999 -2.4999986999999999
1 -2.5 -15.77350269189626 -1 0 
8 4.150633794610969 12.603631010818452
1 5 3.1698729810778064 0 1 
8 4.150633794610969 12.603631010818452
1 9.0849364905389045 22.075317547305485 0.86602540378443871 -0.49999999999999994 
8 2.4999986999999999 12.500001299999999
1 2.5 7.3205080756887728 1 0 
8 2.4999986999999999 12.500001299999999
1 -2.5 12.679491924311227 1 0 
1 15 0 0 1 
1 0 20 1 0 
1 0 -20 1 0 
1 0 20 1 0 
8 2.4999986999999999 12.500001299999999
1 2.5 -12.679491924311233 1 0 
8 2.4999986999999999 12.500001299999999
1 -2.5 -7.320508075688779 1 0 
1 15 0 0 -1 
1 20 0 0 1 
1 0 0 1 0 
1 0 20 1 0 
8 2.4999986999999999 12.500001299999999
1 2.5 -4.2264973081037418 1 0 
8 2.4999986999999999 12.500001299999999
1 -2.5 15.77350269189626 1 0 
8 -14.509620243233421 -6.0566230270259354
1 5 1.8301270189221945 0 1 
8 -14.509620243233421 -6.0566230270259354
1 12.745190528383292 -5.24519052838329 -0.49999999999999994 -0.86602540378443871 
1 15 0 0 1 
1 0 0 1 0 
8 2.4999986999999999 12.500001299999999
1 2.5 12.679491924311233 1 0 
8 2.4999986999999999 12.500001299999999
1 -2.5 7.320508075688779 1 0 
8 1.0566230270259345 9.5096202432334209
1 5 3.1698729810778064 0 1 
8 1.0566230270259345 9.5096202432334209
1 -0.91506350946109583 4.7548094716167109 0.86602540378443871 -0.49999999999999994 
8 -12.500001299999999 -2.4999986999999999
1 2.5 4.2264973081037409 -1 0 
8 -12.500001299999999 -2.4999986999999999
1 -2.5 -4.2264973081037436 -1 0 
1 0 0 0 -1 
1 0 0 0 1 
1 0 0 0 1 
1 0 20 1 0 
8 -14.509620243233417 -6.0566230270259362
1 -5.24519052838329 12.745190528383292 -0.86602540378443871 -0.49999999999999994 
8 -14.509620243233417 -6.0566230270259362
1 10 -1.8301270189221923 0 -1 
1 0 -20 1 0 
1 0 20 1 0 
1 15 0 0 1 
1 0 20 1 0 
1 0 -20 1 0 
1 0 0 1 0 
8 1.0566230270259367 9.5096202432334174
1 4.7548094716167091 -0.91506350946109727 -0.49999999999999994 0.86602540378443871 
8 1.0566230270259367 9.5096202432334174
1 10 -3.1698729810778068 0 -1 
1 0 0 1 0 
1 0 0 1 0 
1 15 0 0 -1 
1 0 0 0 1 
1 0 0 0 -1 
1 20 0 0 1 
1 0 0 1 0 
1 0 20 1 0 
1 15 0 0 -1 
1 20 0 0 1 
8 4.150633794610969 12.60363101081845
1 22.075317547305485 9.0849364905389027 -0.49999999999999994 0.86602540378443871 
8 4.150633794610969 12.60363101081845
1 10 -3.1698729810778072 0 -1 
8 -17.603631010818454 -9.1506337946109699
1 4.75480947161671 -4.5753175473054846 -0.86602540378443871 -0.49999999999999994 
8 -17.603631010818454 -9.1506337946109699
1 10 -1.8301270189221928 0 -1 
1 0 0 0 1 
1 0 0 1 0 
1 15 0 0 1 
1 0 0 1 0 
Curves 40
1 -10 -10 -10 -0 1 0 
1 -10 10 -10 1 0 -0 
1 10 -10 -10 -0 1 0 
1 -10 -10 -10 1 0 -0 
1 -10 -11.830127018922195 -5 0 -1 0 
1 -10 5.77350269189626 -7.5 0 0 1 
1 -10 -10 5 -0 1 0 
1 -10 10 -10 0 0 1 
1 -10 -10 -10 0 0 1 
1 -10 -2.6794919243112267 -7.5 0 -0 1 
1 5.7735026918962591 10.000000000000002 -7.5 0 0 -1 
1 -6.8301270189221936 10 -5 1 0 -0 
1 -2.6794919243112267 10 -7.5 0 0 1 
1 -10 10 5 1 0 -0 
1 10 10 -10 0 0 1 
1 10 2.6794919243112316 -7.5 0 -0 1 
1 10 -10 5 0 1 0 
1 10 -10 -10 0 0 1 
1 10.000000000000002 -5.7735026918962582 -7.5 0 0 1 
1 10 -11.830127018922195 -5 0 -1 0 
1 -10 -10 5 1 0 -0 
1 2.6794919243112316 -10 -7.5 0 0 1 
1 -6.8301270189221936 -10 -5 1 0 -0 
1 -5.7735026918962591 -10 -7.5 0 0 -1 
1 -10 -10 -5 -0 1 0 
1 -10 10 -5 1 0 -0 
1 -15.24519052838329 2.7451905283832918 5 -0.86602540378443871 -0.49999999999999994 0 
1 10 10 -5 0 0 1 
1 -10 10 10 1 0 -0 
1 -10 10 -5 0 0 1 
1 -5.2451905283832909 -10.915063509461097 5 -0.49999999999999994 0.86602540378443871 0 
1 -10 -10 -5 0 0 1 
1 -10 -10 10 -0 1 0 
1 10 -10 -5 -0 1 0 
1 10 -10 -5 0 0 1 
1 10 -10 10 0 1 0 
1 12.075317547305485 -0.91506350946109727 5 -0.49999999999999994 0.86602540378443871 0 
1 -5.24519052838329 -14.575317547305485 5 -0.86602540378443871 -0.49999999999999994 0 
1 -10 -10 -5 1 0 -0 
1 -10 -10 10 1 0 -0 
Polygon3D 0
PolygonOnTriangulations 0
Surfaces 12
1 -10 -10 -10 0 0 1 1 0 -0 -0 1 0 
1 -10 -10 -10 1 0 -0 0 0 1 0 -1 0 
1 -10 10 -10 -0 1 0 0 0 1 1 0 -0 
1 10 -10 -10 1 0 -0 0 0 1 0 -1 0 
1 -10 -10 -10 -0 1 0 0 0 1 1 0 -0 
1 -10 -10 -5 0 0 1 1 0 -0 -0 1 0 
1 -10 10 -5 -0 1 0 0 0 1 1 0 -0 
1 -10 -10 5 0 0 1 1 0 -0 -0 1 0 
1 -10 -10 -5 1 0 -0 0 0 1 0 -1 0 
1 10 -10 -5 1 0 -0 0 0 1 0 -1 0 
1 -10 -10 -5 -0 1 0 0 0 1 1 0 -0 
1 -10 -10 10 0 0 1 1 0 -0 -0 1 0 
Triangulations 0

TShapes 119
Ve
1e-07
-10 10 -10
0 0

0101101
*
Ve
1e-07
-10 -10 -10
0 0

0101101
*
Ed
 1e-07 1 1 0
1  1 0 0 20
2  1 2 0 0 20
2  2 1 0 0 20
0

0101000
-119 0 +118 0 *
Ve
1e-07
10 10 -10
0 0

0101101
*
Ed
 1e-07 1 1 0
1  2 0 0 20
2  3 3 0 0 20
2  4 1 0 0 20
0

0101000
-116 0 +119 0 *
Ve
1e-07
10 -10 -10
0 0

0101101
*
Ed
 1e-07 1 1 0
1  3 0 0 20
2  5 4 0 0 20
2  6 1 0 0 20
0

0101000
-116 0 +114 0 *
Ed
 1e-07 1 1 0
1  4 0 0 20
2  7 5 0 0 20
2  8 1 0 0 20
0

0101000
-114 0 +118 0 *
Wi

0101000
-117 0 -115 0 +113 0 +112 0 *
Fa
0  1e-07 1 0

0111000
+111 0 *
Ve
2.00001e-07
-10 5.77350269189626 -5
0 0

0101101
*
Ve
2.00001e-07
-10 -2.67949192431123 -5
0 0

0101101
*
Ed
 1e-07 1 1 0
1  5 0 -17.6036297108185 -9.15063509461097
2  9 2 0 -17.6036297108185 -9.15063509461097
2  10 6 1 -17.6036297108185 -9.15063509461097
0

0101000
+109 0 -108 0 *
Ve
2.00001e-07
-10 5.77350269189626 5
0 0

0101101
*
Ed
 1e-07 1 1 0
1  6 0 2.5 12.5
2  11 2 0 2.5 12.5
2  12 7 1 2.5 12.5
0

0101000
+109 0 -106 0 *
Ve
1e-07
-10 10 5
0 0

0101101
*
Ed
 1e-07 1 1 0
1  7 0 15.7735026918963 20
2  13 2 0 15.7735026918963 20
2  14 8 0 15.7735026918963 20
0

0101000
+106 0 -104 0 *
Ed
 1e-07 1 1 0
1  8 0 0 15
2  15 2 0 0 15
2  16 3 0 0 15
0

0101000
-104 0 +119 0 *
Ve
1e-07
-10 -10 5
0 0

0101101
*
Ed
 1e-07 1 1 0
1  9 0 0 15
2  17 2 0 0 15
2  18 5 0 0 15
0

0101000
-101 0 +118 0 *
Ve
2.00001e-07
-10 -2.67949192431123 5
0 0

0101101
*
Ed
 1e-07 1 1 0
1  7 0 0 7.32050807568877
2  13 2 0 0 7.32050807568877
2  14 8 0 0 7.32050807568877
0

0101000
+101 0 -99 0 *
Ed
 1e-07 1 1 0
1  10 0 2.5 12.5
2  19 2 0 2.5 12.5
2  20 9 1 2.5 12.5
0

0101000
+108 0 -99 0 *
Wi

0101000
+107 0 -105 0 -103 0 +102 0 +117 0 -100 0 -98 0 +97 0 *
Fa
0  1e-07 2 0

0101000
+96 0 *
Ve
2.00001e-07
5.77350269189626 10 5
0 0

0101101
*
Ve
2.00001e-07
5.77350269189626 10 -5
0 0

0101101
*
Ed
 1e-07 1 1 0
1  11 0 -12.5 -2.5
2  21 3 0 -12.5 -2.5
2  22 10 1 -12.5 -2.5
0

0101000
+94 0 -93 0 *
Ve
2.00001e-07
-2.67949192431123 10 -5
0 0

0101101
*
Ed
 1e-07 1 1 0
1  12 0 4.15063509461097 12.6036297108185
2  23 3 0 4.15063509461097 12.6036297108185
2  24 6 1 4.15063509461097 12.6036297108185
0

0101000
+91 0 -93 0 *
Ve
2.00001e-07
-2.67949192431123 10 5
0 0

0101101
*
Ed
 1e-07 1 1 0
1  13 0 2.5 12.5
2  25 3 0 2.5 12.5
2  26 7 1 2.5 12.5
0

0101000
+91 0 -89 0 *
Ed
 1e-07 1 1 0
1  14 0 0 7.32050807568877
2  27 3 0 0 7.32050807568877
2  28 8 0 0 7.32050807568877
0

0101000
+104 0 -89 0 *
Ve
1e-07
10 10 5
0 0

0101101
*
Ed
 1e-07 1 1 0
1  15 0 0 15
2  29 4 0 0 15
2  30 3 0 0 15
0

0101000
-86 0 +116 0 *
Ed
 1e-07 1 1 0
1  14 0 15.7735026918963 20
2  27 3 0 15.7735026918963 20
2  28 8 0 15.7735026918963 20
0

0101000
+94 0 -86 0 *
Wi

0101000
-92 0 +90 0 -88 0 +87 0 +102 0 -115 0 -85 0 +84 0 *
Fa
0  1e-07 3 0

0101000
+83 0 *
Ve
2.00001e-07
10 2.67949192431123 -5
0 0

0101101
*
Ve
2.00001e-07
10 2.67949192431123 5
0 0

0101101
*
Ed
 1e-07 1 1 0
1  16 0 2.5 12.5
2  31 4 0 2.5 12.5
2  32 10 1 2.5 12.5
0

0101000
+81 0 -80 0 *
Ed
 1e-07 1 1 0
1  17 0 12.6794919243112 20
2  33 4 0 12.6794919243112 20
2  34 8 0 12.6794919243112 20
0

0101000
+80 0 -86 0 *
Ve
1e-07
10 -10 5
0 0

0101101
*
Ed
 1e-07 1 1 0
1  18 0 0 15
2  35 4 0 0 15
2  36 5 0 0 15
0

0101000
-77 0 +114 0 *
Ve
2.00001e-07
10 -5.77350269189626 5
0 0

0101101
*
Ed
 1e-07 1 1 0
1  17 0 0 4.22649730810374
2  33 4 0 0 4.22649730810374
2  34 8 0 0 4.22649730810374
0

0101000
+77 0 -75 0 *
Ve
2.00001e-07
10 -5.77350269189626 -5
0 0

0101101
*
Ed
 1e-07 1 1 0
1  19 0 2.5 12.5
2  37 4 0 2.5 12.5
2  38 11 1 2.5 12.5
0

0101000
+73 0 -75 0 *
Ed
 1e-07 1 1 0
1  20 0 -14.5096189432334 -6.05662432702594
2  39 4 0 -14.5096189432334 -6.05662432702594
2  40 6 1 -14.5096189432334 -6.05662432702594
0

0101000
+81 0 -73 0 *
Wi

0101000
-79 0 -78 0 +85 0 +113 0 -76 0 -74 0 +72 0 +71 0 *
Fa
0  1e-07 4 0

0101000
+70 0 *
Ve
2.00001e-07
-5.77350269189626 -10 5
0 0

0101101
*
Ed
 1e-07 1 1 0
1  21 0 0 4.22649730810374
2  41 5 0 0 4.22649730810374
2  42 8 0 0 4.22649730810374
0

0101000
+101 0 -68 0 *
Ve
2.00001e-07
2.67949192431123 -10 5
0 0

0101101
*
Ed
 1e-07 1 1 0
1  21 0 12.6794919243112 20
2  41 5 0 12.6794919243112 20
2  42 8 0 12.6794919243112 20
0

0101000
+66 0 -77 0 *
Ve
2.00001e-07
2.67949192431123 -10 -5
0 0

0101101
*
Ed
 1e-07 1 1 0
1  22 0 2.5 12.5
2  43 5 0 2.5 12.5
2  44 11 1 2.5 12.5
0

0101000
+64 0 -66 0 *
Ve
2.00001e-07
-5.77350269189626 -10 -5
0 0

0101101
*
Ed
 1e-07 1 1 0
1  23 0 1.05662432702593 9.50961894323342
2  45 5 0 1.05662432702593 9.50961894323342
2  46 6 1 1.05662432702593 9.50961894323342
0

0101000
+62 0 -64 0 *
Ed
 1e-07 1 1 0
1  24 0 -12.5 -2.5
2  47 5 0 -12.5 -2.5
2  48 9 1 -12.5 -2.5
0

0101000
+68 0 -62 0 *
Wi

0101000
+67 0 +100 0 -112 0 -76 0 +65 0 +63 0 +61 0 +60 0 *
Fa
0  1e-07 5 0

0101000
+59 0 *
Ve
1e-07
-10 10 -5
0 0

0101101
*
Ed
 1e-07 1 1 0
1  25 0 12.6794919243112 20
2  49 9 0 12.6794919243112 20
2  50 6 0 12.6794919243112 20
0

0101000
+108 2 -57 0 *
Ed
 1e-07 1 1 0
1  26 0 0 4.22649730810374
2  51 7 0 0 4.22649730810374
2  52 6 0 0 4.22649730810374
0

0101000
+57 0 -109 2 *
Wi

0101000
-107 0 -56 1 -55 1 *
Fa
0  1e-07 6 1

0101000
+54 0 *
Ed
 1e-07 1 1 0
1  27 0 -14.5096189432334 -6.05662432702594
2  53 8 0 -14.5096189432334 -6.05662432702594
2  54 7 1 -14.5096189432334 -6.05662432702594
0

0101000
+89 0 -106 0 *
Ve
1e-07
10 10 -5
0 0

0101101
*
Ed
 1e-07 1 1 0
1  26 0 12.6794919243112 20
2  51 7 0 12.6794919243112 20
2  52 6 0 12.6794919243112 20
0

0101000
+91 2 -51 0 *
Ve
1e-07
10 10 10
0 0

0101101
*
Ed
 1e-07 1 1 0
1  28 0 0 15
2  55 10 0 0 15
2  56 7 0 0 15
0

0101000
-49 0 +51 0 *
Ve
1e-07
-10 10 10
0 0

0101101
*
Ed
 1e-07 1 1 0
1  29 0 0 20
2  57 7 0 0 20
2  58 12 0 0 20
0

0101000
-49 0 +47 0 *
Ed
 1e-07 1 1 0
1  30 0 0 15
2  59 9 0 0 15
2  60 7 0 0 15
0

0101000
-47 0 +57 0 *
Wi

0101000
-105 0 +52 0 +88 0 -50 1 -48 1 +46 1 +45 1 -55 1 *
Fa
0  1e-07 7 1

0101000
+44 0 *
Wi

0101000
-103 0 -87 0 -52 0 *
Fa
0  1e-07 8 0

0101000
+42 0 *
Ed
 1e-07 1 1 0
1  31 0 1.05662432702594 9.50961894323342
2  61 8 0 1.05662432702594 9.50961894323342
2  62 9 1 1.05662432702594 9.50961894323342
0

0101000
+68 0 -99 0 *
Wi

0101000
+67 0 -98 0 +40 0 *
Fa
0  1e-07 8 0

0101000
+39 0 *
Ve
1e-07
-10 -10 -5
0 0

0101101
*
Ed
 1e-07 1 1 0
1  25 0 0 4.22649730810374
2  49 9 0 0 4.22649730810374
2  50 6 0 0 4.22649730810374
0

0101000
+37 0 -62 2 *
Ve
1e-07
-10 -10 10
0 0

0101101
*
Ed
 1e-07 1 1 0
1  32 0 0 15
2  63 9 0 0 15
2  64 11 0 0 15
0

0101000
-35 0 +37 0 *
Ed
 1e-07 1 1 0
1  33 0 0 20
2  65 9 0 0 20
2  66 12 0 0 20
0

0101000
-47 0 +35 0 *
Wi

0101000
-97 0 +40 0 -60 0 +36 1 -34 1 -33 1 +45 1 +56 1 *
Fa
0  1e-07 9 1

0101000
+32 0 *
Ve
1e-07
10 -10 -5
0 0

0101101
*
Ed
 1e-07 1 1 0
1  34 0 0 7.32050807568877
2  67 10 0 0 7.32050807568877
2  68 6 0 0 7.32050807568877
0

0101000
+30 0 -81 2 *
Ve
1e-07
10 -10 10
0 0

0101101
*
Ed
 1e-07 1 1 0
1  35 0 0 15
2  69 10 0 0 15
2  70 11 0 0 15
0

0101000
-28 0 +30 0 *
Ed
 1e-07 1 1 0
1  36 0 0 20
2  71 10 0 0 20
2  72 12 0 0 20
0

0101000
-49 0 +28 0 *
Ed
 1e-07 1 1 0
1  34 0 15.7735026918963 20
2  67 10 0 15.7735026918963 20
2  68 6 0 15.7735026918963 20
0

0101000
+93 2 -51 0 *
Ed
 1e-07 1 1 0
1  37 0 4.15063509461097 12.6036297108185
2  73 8 0 4.15063509461097 12.6036297108185
2  74 10 1 4.15063509461097 12.6036297108185
0

0101000
+80 0 -94 0 *
Wi

0101000
+29 1 -27 1 -26 1 +48 1 +25 1 +92 0 +24 0 +79 0 *
Fa
0  1e-07 10 1

0101000
+23 0 *
Wi

0101000
-50 1 +25 1 +90 0 *
Fa
0  1e-07 6 1

0101000
+21 0 *
Wi

0101000
-24 0 -84 0 +78 0 *
Fa
0  1e-07 8 0

0101000
+19 0 *
Ed
 1e-07 1 1 0
1  38 0 -17.6036297108185 -9.15063509461097
2  75 8 0 -17.6036297108185 -9.15063509461097
2  76 11 1 -17.6036297108185 -9.15063509461097
0

0101000
+75 0 -66 0 *
Wi

0101000
+17 0 +74 0 +65 0 *
Fa
0  1e-07 8 0

0101000
+16 0 *
Ed
 1e-07 1 1 0
1  39 0 15.7735026918963 20
2  77 11 0 15.7735026918963 20
2  78 6 0 15.7735026918963 20
0

0101000
+73 2 -30 0 *
Ed
 1e-07 1 1 0
1  40 0 0 20
2  79 11 0 0 20
2  80 12 0 0 20
0

0101000
-28 0 +35 0 *
Ed
 1e-07 1 1 0
1  39 0 0 7.32050807568877
2  77 11 0 0 7.32050807568877
2  78 6 0 0 7.32050807568877
0

0101000
+37 0 -64 2 *
Wi

0101000
-14 1 -27 1 +13 1 +34 1 -12 1 -63 0 +17 0 +72 0 *
Fa
0  1e-07 11 1

0101000
+11 0 *
Wi

0101000
+29 1 +14 1 +71 0 *
Fa
0  1e-07 6 1

0101000
+9 0 *
Wi

0101000
-61 0 +12 1 -36 1 *
Fa
0  1e-07 6 1

0101000
+7 0 *
Wi

0101000
-33 0 -46 0 +26 0 +13 0 *
Fa
0  1e-07 12 0

0111000
+5 0 *
Sh

0101000
-110 0 -95 0 +82 0 +69 0 -58 0 -53 0 +43 0 +41 0 +38 0 -31 0 
+22 0 -20 0 +18 0 +15 0 -10 0 -8 0 -6 0 +4 1 *
So

0100000
+3 0 *
Co

1100000
+2 0 *

+1 0 
0

