DBRep_DrawableShape

CASCADE Topology V1, (c) Matra-Datavision
Locations 2
1
              1               0               0               5 
              0               1               0               5 
              0               0               1               5 
2  1 -1 0
Curve2ds 4
1 0.52359877559829882 0 0 -1 
1 5.7595865315812871 0 0 -1 
1 0 0 1 0 
1 0 -8.6602540378443873 1 0 
Curves 4
1 4.3301270189221919 2.5 0 0.57735026918962573 0.57735026918962573 0.57735026918962573 
1 4.330127018922191 -2.5000000000000009 0 0.57735026918962573 0.57735026918962573 0.57735026918962573 
2 0 0 0 0 0 1 1 0 -0 -0 1 0 5
1 4.3301270189221901 -2.5 0 0 1 0 
Polygon3D 0
PolygonOnTriangulations 0
Surfaces 3
6 -0.57735026918962573 -0.57735026918962573 -0.57735026918962573 
2 0 0 0 0 0 1 1 0 -0 -0 1 0 5
1 4.3301270189221901 -2.5 0 -0.70710678118654757 0 0.70710678118654757 0 1 0 -0.70710678118654757 0 -0.70710678118654757 
1 4.3301270189221936 2.4999999999999996 0 -0 0 -1 -1 0 0 0 1 0 
Triangulations 0

TShapes 14
Ve
1.00000001790181e-07
4.33012701892219 2.5 0
0 0

0101101
*
Ed
 1.00000001790181e-07 1 1 0
1  1 0 0 8.66025403784439
2  1 1 0 0 8.66025403784439
0

0101000
+14 0 -14 1 *
Ve
1.00000001421779e-07
4.33012701892219 -2.5 0
0 0

0101101
*
Ed
 1.00000001421779e-07 1 1 0
1  2 0 0 8.66025403784439
2  2 1 0 0 8.66025403784439
0

0101000
+12 0 -12 1 *
Ed
 1e-07 1 1 0
1  3 0 0.523598775598299 5.75958653158129
2  3 1 0 0.523598775598299 5.75958653158129
2  4 1 2 0.523598775598299 5.75958653158129
0

0101000
+14 0 -12 0 *
Wi

0101000
+13 0 -11 0 -10 0 +10 1 *
Fa
0  1e-07 1 0

0101000
+9 0 *
Ed
 1e-07 1 1 0
1  4 0 0 5
0

0101000
+12 0 -14 0 *
Wi

0101000
+11 0 -13 0 -7 0 +7 1 *
Fa
0  1e-07 2 0

0101000
+6 0 *
Wi

0101100
+10 0 +7 0 *
Fa
0  1e-07 3 0

0101000
-4 0 *
Sh

0101000
-8 0 -5 0 +3 0 -3 1 *
So

1100000
+2 0 *

+1 0 
0

